<?xml version="1.0" standalone="no"?>
<!DOCTYPE svg PUBLIC "-//W3C//DTD SVG 20010904//EN"
 "http://www.w3.org/TR/2001/REC-SVG-20010904/DTD/svg10.dtd">
<svg version="1.0" xmlns="http://www.w3.org/2000/svg"
 width="168.000000pt" height="168.000000pt" viewBox="0 0 168.000000 168.000000"
 preserveAspectRatio="xMidYMid meet">
<metadata>
Created by potrace 1.14, written by Peter Selinger 2001-2017
</metadata>
<g transform="translate(0.000000,168.000000) scale(0.100000,-0.100000)"
fill="#000000" stroke="none">
<path d="M313 1578 c-15 -4 -31 -15 -37 -25 -13 -22 -16 -782 -4 -829 5 -20
16 -34 31 -38 12 -3 135 -6 274 -6 273 0 283 2 283 55 0 46 -34 56 -181 55
-74 -1 -169 -1 -211 -1 l-77 1 2 147 2 148 201 0 c219 0 234 4 234 55 0 50
-13 53 -234 53 l-204 0 0 138 c0 77 3 140 7 140 3 1 102 2 219 3 198 1 215 3
228 21 18 24 18 46 1 69 -12 17 -35 18 -260 20 -136 0 -259 -2 -274 -6z"/>
<path d="M1124 1526 c-18 -13 -19 -28 -19 -211 0 -178 2 -198 18 -210 24 -17
69 -5 82 22 7 12 10 95 10 203 -1 167 -2 183 -20 196 -24 18 -46 18 -71 0z"/>
<path d="M785 979 c-55 -9 -75 -58 -37 -92 16 -15 49 -17 255 -17 l237 0 -88
-122 c-49 -68 -149 -206 -222 -308 -74 -102 -147 -204 -163 -227 -18 -25 -30
-55 -30 -73 0 -58 7 -59 340 -60 166 0 309 3 318 6 27 11 38 53 20 80 -15 24
-15 24 -265 26 l-250 3 57 80 c31 44 140 195 242 335 101 140 189 266 194 280
15 40 2 78 -30 86 -34 9 -527 11 -578 3z"/>
<path d="M287 562 c-9 -10 -17 -25 -17 -34 0 -8 29 -55 64 -104 l63 -89 1 -84
c0 -93 11 -113 58 -114 42 0 54 26 54 117 0 75 2 82 38 135 20 31 43 62 50 69
7 8 19 27 28 44 14 27 14 32 -1 54 -31 48 -70 28 -141 -73 l-30 -41 -49 66
c-55 73 -87 88 -118 54z"/>
</g>
</svg>
