<svg width="42" height="42" viewBox="0 0 42 42" fill="none" xmlns="http://www.w3.org/2000/svg">
<path d="M8.416 25C7.84 25 7.392 24.8507 7.072 24.552C6.77333 24.232 6.624 23.784 6.624 23.208V4.232C6.624 3.656 6.77333 3.21866 7.072 2.92C7.392 2.6 7.84 2.44 8.416 2.44H20.096C20.544 2.44 20.8853 2.55733 21.12 2.792C21.3547 3.00533 21.472 3.32533 21.472 3.752C21.472 4.2 21.3547 4.54133 21.12 4.776C20.8853 5.01067 20.544 5.128 20.096 5.128H9.824V12.2H19.392C19.8613 12.2 20.2027 12.3173 20.416 12.552C20.6507 12.7867 20.768 13.1173 20.768 13.544C20.768 13.992 20.6507 14.3333 20.416 14.568C20.2027 14.7813 19.8613 14.888 19.392 14.888H9.824V22.312H20.096C20.544 22.312 20.8853 22.4293 21.12 22.664C21.3547 22.8987 21.472 23.2293 21.472 23.656C21.472 24.104 21.3547 24.4453 21.12 24.68C20.8853 24.8933 20.544 25 20.096 25H8.416Z" fill="black"/>
<path d="M11.326 38.112C11.0367 38.112 10.8127 38.0327 10.654 37.874C10.5047 37.706 10.43 37.4727 10.43 37.174V32.918L10.808 33.996L7.434 29.25C7.31267 29.082 7.25667 28.9047 7.266 28.718C7.28467 28.522 7.364 28.3587 7.504 28.228C7.644 28.088 7.84 28.018 8.092 28.018C8.27867 28.018 8.44667 28.0647 8.596 28.158C8.75467 28.2513 8.904 28.396 9.044 28.592L11.55 32.148H11.158L13.678 28.592C13.8273 28.3867 13.972 28.242 14.112 28.158C14.252 28.0647 14.4247 28.018 14.63 28.018C14.8727 28.018 15.0593 28.0833 15.19 28.214C15.33 28.3353 15.4 28.4893 15.4 28.676C15.4093 28.8627 15.344 29.0587 15.204 29.264L11.858 33.996L12.222 32.918V37.174C12.222 37.7993 11.9233 38.112 11.326 38.112Z" fill="black"/>
<path d="M10.654 37.874L10.2803 38.2062L10.2901 38.2172L10.3004 38.2276L10.654 37.874ZM10.43 32.918L10.9018 32.7526L9.93 32.918H10.43ZM10.808 33.996L10.4005 34.2857L11.2798 33.8306L10.808 33.996ZM7.434 29.25L7.84153 28.9603L7.83934 28.9573L7.434 29.25ZM7.266 28.718L6.76825 28.6706L6.76719 28.6818L6.76662 28.693L7.266 28.718ZM7.504 28.228L7.84516 28.5935L7.85146 28.5876L7.85755 28.5816L7.504 28.228ZM8.596 28.158L8.3309 28.5822L8.34249 28.589L8.596 28.158ZM9.044 28.592L9.45272 28.304L9.45087 28.3014L9.044 28.592ZM11.55 32.148V32.648H12.514L11.9587 31.86L11.55 32.148ZM11.158 32.148L10.7501 31.8589L10.1908 32.648H11.158V32.148ZM13.678 28.592L13.2736 28.2979L13.2701 28.3029L13.678 28.592ZM14.112 28.158L14.3692 28.5867L14.3795 28.5806L14.3894 28.574L14.112 28.158ZM15.19 28.214L14.8364 28.5676L14.8491 28.5802L14.8625 28.5918L15.19 28.214ZM15.4 28.676H14.9V28.6885L14.9006 28.701L15.4 28.676ZM15.204 29.264L15.6123 29.5527L15.6171 29.5457L15.204 29.264ZM11.858 33.996L11.3843 33.836L12.2662 34.2847L11.858 33.996ZM12.222 32.918H12.722L11.7483 32.758L12.222 32.918ZM11.326 37.612C11.1292 37.612 11.0475 37.5603 11.0076 37.5204L10.3004 38.2276C10.5779 38.505 10.9442 38.612 11.326 38.612V37.612ZM11.0277 37.5418C10.9833 37.4919 10.93 37.3911 10.93 37.174H9.93C9.93 37.5542 10.026 37.9201 10.2803 38.2062L11.0277 37.5418ZM10.93 37.174V32.918H9.93V37.174H10.93ZM9.95817 33.0834L10.3362 34.1614L11.2798 33.8306L10.9018 32.7526L9.95817 33.0834ZM11.2155 33.7063L7.84152 28.9603L7.02648 29.5397L10.4005 34.2857L11.2155 33.7063ZM7.83934 28.9573C7.77686 28.8707 7.76234 28.8037 7.76538 28.743L6.76662 28.693C6.75099 29.0057 6.84847 29.2933 7.02866 29.5427L7.83934 28.9573ZM7.76375 28.7654C7.77119 28.6873 7.79718 28.6383 7.84516 28.5935L7.16284 27.8625C6.93082 28.079 6.79814 28.3567 6.76825 28.6706L7.76375 28.7654ZM7.85755 28.5816C7.87997 28.5591 7.93463 28.518 8.092 28.518V27.518C7.74537 27.518 7.40803 27.6169 7.15045 27.8744L7.85755 28.5816ZM8.092 28.518C8.19083 28.518 8.26597 28.5414 8.331 28.582L8.861 27.734C8.62736 27.588 8.3665 27.518 8.092 27.518V28.518ZM8.34249 28.589C8.42521 28.6376 8.52586 28.7268 8.63713 28.8826L9.45087 28.3014C9.28214 28.0652 9.08413 27.865 8.84951 27.727L8.34249 28.589ZM8.63529 28.88L11.1413 32.436L11.9587 31.86L9.45271 28.304L8.63529 28.88ZM11.55 31.648H11.158V32.648H11.55V31.648ZM11.5659 32.4371L14.0859 28.8811L13.2701 28.3029L10.7501 31.8589L11.5659 32.4371ZM14.0824 28.8861C14.2118 28.7081 14.3098 28.6224 14.3692 28.5867L13.8548 27.7293C13.6342 27.8616 13.4429 28.0652 13.2736 28.2979L14.0824 28.8861ZM14.3894 28.574C14.4307 28.5465 14.5014 28.518 14.63 28.518V27.518C14.3479 27.518 14.0733 27.5829 13.8346 27.742L14.3894 28.574ZM14.63 28.518C14.7832 28.518 14.8262 28.5573 14.8364 28.5676L15.5436 27.8604C15.2925 27.6094 14.9621 27.518 14.63 27.518V28.518ZM14.8625 28.5918C14.8834 28.6099 14.8898 28.6219 14.8923 28.6274C14.8948 28.633 14.9 28.6466 14.9 28.676H15.9C15.9 28.3456 15.768 28.0533 15.5175 27.8362L14.8625 28.5918ZM14.9006 28.701C14.903 28.7477 14.8896 28.8375 14.7909 28.9823L15.6171 29.5457C15.7984 29.2798 15.9157 28.9776 15.8994 28.651L14.9006 28.701ZM14.7958 28.9753L11.4498 33.7073L12.2662 34.2847L15.6122 29.5527L14.7958 28.9753ZM12.3317 34.156L12.6957 33.078L11.7483 32.758L11.3843 33.836L12.3317 34.156ZM11.722 32.918V37.174H12.722V32.918H11.722ZM11.722 37.174C11.722 37.4152 11.664 37.5033 11.6364 37.5321C11.6129 37.5567 11.5416 37.612 11.326 37.612V38.612C11.7077 38.612 12.0844 38.5109 12.3596 38.2229C12.6306 37.9391 12.722 37.5582 12.722 37.174H11.722Z" fill="black"/>
<path d="M20.04 40C19.6133 40 19.2613 39.9147 18.984 39.744C18.728 39.5733 18.5467 39.3387 18.44 39.04C18.3547 38.72 18.3547 38.3787 18.44 38.016C18.5467 37.632 18.7493 37.2373 19.048 36.832L31.848 19.104V20.224H19.784C19.2933 20.224 18.92 20.1067 18.664 19.872C18.408 19.616 18.28 19.264 18.28 18.816C18.28 18.368 18.408 18.0267 18.664 17.792C18.92 17.5573 19.2933 17.44 19.784 17.44H33.384C33.8107 17.44 34.1627 17.5253 34.44 17.696C34.7173 17.8667 34.8987 18.1013 34.984 18.4C35.0907 18.6987 35.0907 19.04 34.984 19.424C34.8987 19.808 34.7067 20.2027 34.408 20.608L21.576 38.336V37.216H34.12C34.6107 37.216 34.984 37.3333 35.24 37.568C35.496 37.8027 35.624 38.144 35.624 38.592C35.624 39.04 35.496 39.392 35.24 39.648C34.984 39.8827 34.6107 40 34.12 40H20.04Z" fill="black"/>
<path d="M28.974 14.112C28.6847 14.112 28.4607 14.0327 28.302 13.874C28.1527 13.706 28.078 13.4773 28.078 13.188V4.942C28.078 4.64333 28.1527 4.41467 28.302 4.256C28.4607 4.09733 28.6847 4.018 28.974 4.018C29.2633 4.018 29.4827 4.09733 29.632 4.256C29.7907 4.41467 29.87 4.64333 29.87 4.942V13.188C29.87 13.4773 29.7953 13.706 29.646 13.874C29.4967 14.0327 29.2727 14.112 28.974 14.112Z" fill="black"/>
<path d="M28.302 13.874L27.9283 14.2062L27.9381 14.2172L27.9484 14.2276L28.302 13.874ZM28.302 4.256L27.9484 3.90245L27.9431 3.9078L27.9379 3.91332L28.302 4.256ZM29.632 4.256L29.2679 4.59868L29.2731 4.6042L29.2784 4.60955L29.632 4.256ZM29.646 13.874L30.0101 14.2167L30.015 14.2115L30.0197 14.2062L29.646 13.874ZM28.974 13.612C28.7772 13.612 28.6955 13.5603 28.6556 13.5204L27.9484 14.2276C28.2259 14.505 28.5922 14.612 28.974 14.612V13.612ZM28.6757 13.5418C28.6289 13.4892 28.578 13.391 28.578 13.188H27.578C27.578 13.5636 27.6764 13.9228 27.9283 14.2062L28.6757 13.5418ZM28.578 13.188V4.942H27.578V13.188H28.578ZM28.578 4.942C28.578 4.72284 28.6321 4.6348 28.6661 4.59868L27.9379 3.91332C27.6732 4.19453 27.578 4.56382 27.578 4.942H28.578ZM28.6556 4.60955C28.6955 4.56965 28.7772 4.518 28.974 4.518V3.518C28.5922 3.518 28.2259 3.62501 27.9484 3.90245L28.6556 4.60955ZM28.974 4.518C29.1727 4.518 29.2412 4.57027 29.2679 4.59868L29.9961 3.91332C29.7242 3.62439 29.354 3.518 28.974 3.518V4.518ZM29.2784 4.60955C29.3155 4.64662 29.37 4.73056 29.37 4.942H30.37C30.37 4.5561 30.2658 4.18272 29.9856 3.90245L29.2784 4.60955ZM29.37 4.942V13.188H30.37V4.942H29.37ZM29.37 13.188C29.37 13.391 29.3191 13.4892 29.2723 13.5418L30.0197 14.2062C30.2716 13.9228 30.37 13.5636 30.37 13.188H29.37ZM29.2819 13.5313C29.258 13.5567 29.1876 13.612 28.974 13.612V14.612C29.3578 14.612 29.7353 14.5086 30.0101 14.2167L29.2819 13.5313Z" fill="black"/>
</svg>
